<svg xmlns="http://www.w3.org/2000/svg" xmlns:xlink="http://www.w3.org/1999/xlink" viewBox="0 0 200 180" width="200"
    height="180" preserveAspectRatio="xMidYMid meet"
    style="width: 100%; height: 100%; transform: translate3d(0px, 0px, 0px); content-visibility: visible;">
    <defs>
        <clipPath id="__lottie_element_2">
            <rect width="200" height="180" x="0" y="0" />
        </clipPath>
        <symbol id="__lottie_element_9">
            <g>
                <g transform="matrix(0.33496350049972534,-0.0003858504060190171,0.0003858504060190171,0.33496350049972534,48.004173278808594,47.18659973144531)"
                    opacity="1" style="display: block;">
                    <g opacity="1"
                        transform="matrix(0.9999998211860657,-0.0006108651868999004,0.0006108651868999004,0.9999998211860657,154.5320281982422,127.36839294433594)">
                        <g opacity="1" transform="matrix(1,0,0,1,0,0)">
                            <path fill="rgb(255,253,248)" fill-opacity="1"
                                d="M31.799999237060547,-42.72800064086914 C31.799999237060547,-54.56399917602539 38.470001220703125,-62.8489990234375 48.23699951171875,-62.8489990234375 C57.76499938964844,-62.8489990234375 64.43499755859375,-54.56399917602539 64.43499755859375,-42.72800064086914 C64.43499755859375,-30.892000198364258 57.76499938964844,-22.3700008392334 48.23699951171875,-22.3700008392334 C38.470001220703125,-22.3700008392334 31.799999237060547,-30.892000198364258 31.799999237060547,-42.72800064086914z" />
                        </g>
                    </g>
                    <g opacity="1"
                        transform="matrix(0.9999998211860657,-0.0006108651868999004,0.0006108651868999004,0.9999998211860657,203.5320281982422,127.36839294433594)">
                        <g opacity="1" transform="matrix(1,0,0,1,0,0)">
                            <path fill="rgb(255,253,248)" fill-opacity="1"
                                d="M34.5989990234375,-42.722999572753906 C34.5989990234375,-54.558998107910156 41.26900100708008,-62.84400177001953 51.0359992980957,-62.84400177001953 C60.56399917602539,-62.84400177001953 67.23400115966797,-54.558998107910156 67.23400115966797,-42.722999572753906 C67.23400115966797,-30.886999130249023 60.56399917602539,-22.364999771118164 51.0359992980957,-22.364999771118164 C41.26900100708008,-22.364999771118164 34.5989990234375,-30.886999130249023 34.5989990234375,-42.722999572753906z" />
                        </g>
                    </g>
                    <g opacity="0"
                        transform="matrix(0.9999998211860657,-0.0006108651868999004,0.0006108651868999004,0.9999998211860657,203.5320281982422,127.36839294433594)">
                        <path stroke-linecap="round" stroke-linejoin="round" fill-opacity="0" stroke="rgb(255,253,248)"
                            stroke-opacity="1" stroke-width="5"
                            d="M36.92499923706055,-48.5 C38.73899841308594,-57.16699981689453 44.70199966430664,-62.84299850463867 52.7859992980957,-62.84299850463867 C59.65700149536133,-62.84299850463867 65.04199981689453,-58.53499984741211 67.51000213623047,-51.69300079345703" />
                        <g opacity="1" transform="matrix(1,0,0,1,0,0)" />
                    </g>
                </g>
            </g>
        </symbol>
        <filter id="__lottie_element_12" filterUnits="objectBoundingBox" x="0%" y="0%" width="100%" height="100%">
            <feComponentTransfer in="SourceGraphic">
                <feFuncA type="table" tableValues="1.0 0.0" />
            </feComponentTransfer>
        </filter>
        <mask id="__lottie_element_9_2" mask-type="alpha">
            <g filter="url(#__lottie_element_12)">
                <rect width="200" height="180" x="0" y="0" fill="#ffffff" opacity="0" />
                <use xlink:href="#__lottie_element_9" />
            </g>
        </mask>
    </defs>
    <g clip-path="url(#__lottie_element_2)">
        <g mask="url(#__lottie_element_9_2)" style="display: block;">
            <g transform="matrix(-0.19032029807567596,0.0000033217156669707038,-0.0000033217156669707038,-0.19032029807567596,81.2076187133789,45.50544357299805)"
                opacity="1">
                <g opacity="1"
                    transform="matrix(3.430000066757202,0,0,3.430000066757202,311.66900634765625,654.6409912109375)">
                    <path fill="rgb(171,159,242)" fill-opacity="1"
                        d="M-58.32099914550781,-325.2590026855469 C-78.61799621582031,-325.2590026855469 -93.87200164794922,-307.6059875488281 -102.9749984741211,-293.6570129394531 C-101.86799621582031,-296.7430114746094 -101.25299835205078,-299.8290100097656 -101.25299835205078,-302.7919921875 C-101.25299835205078,-310.9389953613281 -105.927001953125,-316.74200439453125 -115.15299987792969,-316.74200439453125 C-127.822998046875,-316.74200439453125 -141.35499572753906,-305.6310119628906 -148.36700439453125,-293.6570129394531 C-147.875,-295.385009765625 -147.62899780273438,-296.9909973144531 -147.62899780273438,-298.47198486328125 C-147.62899780273438,-304.1499938964844 -150.8280029296875,-307.7300109863281 -157.3470001220703,-307.7300109863281 C-177.88999938964844,-307.7300109863281 -198.5570068359375,-271.3139953613281 -198.5570068359375,-239.46600341796875 C-198.5570068359375,-214.6540069580078 -186.00900268554688,-192.80499267578125 -154.51800537109375,-192.80499267578125 C-99.16200256347656,-192.80499267578125 -39.5,-260.45098876953125 -39.5,-304.1499938964844 C-39.5,-321.3089904785156 -48.72600173950195,-325.2590026855469 -58.32099914550781,-325.2590026855469z" />
                </g>
            </g>
        </g>
    </g>
</svg>